HIERARCHY
ROOT hip
{
  OFFSET 0 0 0
  CHANNELS 6 Xposition Yposition Zposition Zrotation Yrotation Xrotation
  JOINT abdomen
  {
    OFFSET 0 20.6881 -0.73152
    CHANNELS 3 Zrotation Xrotation Yrotation
    JOINT chest
    {
      OFFSET 0 11.7043 -0.48768
      CHANNELS 3 Zrotation Xrotation Yrotation
      JOINT neck
      {
        OFFSET 0 22.1894 -2.19456
        CHANNELS 3 Zrotation Xrotation Yrotation
        JOINT head
        {
          OFFSET -0.24384 7.07133 1.2192
          CHANNELS 3 Zrotation Xrotation Yrotation
          JOINT leftEye
          {
            OFFSET 4.14528 8.04674 8.04672
            CHANNELS 3 Zrotation Xrotation Yrotation
            End Site
            {
              OFFSET 1 0 0
            }
          }
          JOINT rightEye
          {
            OFFSET -3.6576 8.04674 8.04672
            CHANNELS 3 Zrotation Xrotation Yrotation
            End Site
            {
              OFFSET 1 0 0
            }
          }
        }
      }
      JOINT rCollar
      {
        OFFSET -2.68224 19.2634 -4.8768
        CHANNELS 3 Zrotation Xrotation Yrotation
        JOINT rShldr
        {
          OFFSET -8.77824 -1.95073 1.46304
          CHANNELS 3 Zrotation Xrotation Yrotation
          JOINT rForeArm
          {
            OFFSET -28.1742 -1.7115 0.48768
            CHANNELS 3 Zrotation Xrotation Yrotation
            JOINT rHand
            {
              OFFSET -22.5879 0.773209 7.07136
              CHANNELS 3 Zrotation Xrotation Yrotation
              JOINT rThumb1
              {
                OFFSET -1.2192 -0.487915 3.41376
                CHANNELS 3 Zrotation Xrotation Yrotation
                JOINT rThumb2
                {
                  OFFSET -3.37035 -0.52449 3.41376
                  CHANNELS 3 Zrotation Xrotation Yrotation
                  End Site
                  {
                    OFFSET -1.78271 -1.18214 1.43049
                  }
                }
              }
              JOINT rIndex1
              {
                OFFSET -7.75947 0.938293 5.60832
                CHANNELS 3 Zrotation Xrotation Yrotation
                JOINT rIndex2
                {
                  OFFSET -2.54057 -0.884171 1.56538
                  CHANNELS 3 Zrotation Xrotation Yrotation
                  End Site
                  {
                    OFFSET -1.62519 -0.234802 1.16502
                  }
                }
              }
              JOINT rMid1
              {
                OFFSET -8.24714 1.18213 3.41376
                CHANNELS 3 Zrotation Xrotation Yrotation
                JOINT rMid2
                {
                  OFFSET -3.10165 -0.590103 1.0647
                  CHANNELS 3 Zrotation Xrotation Yrotation
                  End Site
                  {
                    OFFSET -2.48547 -0.328903 0.83742
                  }
                }
              }
              JOINT rRing1
              {
                OFFSET -8.82822 0.546677 1.51678
                CHANNELS 3 Zrotation Xrotation Yrotation
                JOINT rRing2
                {
                  OFFSET -2.60934 -0.819778 -0.0198488
                  CHANNELS 3 Zrotation Xrotation Yrotation
                  End Site
                  {
                    OFFSET -2.33842 -0.294052 0.168128
                  }
                }
              }
              JOINT rPinky1
              {
                OFFSET -8.27202 -0.0477905 -0.4584
                CHANNELS 3 Zrotation Xrotation Yrotation
                JOINT rPinky2
                {
                  OFFSET -1.82734 -0.647385 -0.700984
                  CHANNELS 3 Zrotation Xrotation Yrotation
                  End Site
                  {
                    OFFSET -1.69225 -0.51767 -0.607171
                  }
                }
              }
            }
          }
        }
      }
      JOINT lCollar
      {
        OFFSET 2.68224 19.2634 -4.8768
        CHANNELS 3 Zrotation Xrotation Yrotation
        JOINT lShldr
        {
          OFFSET 8.77824 -1.95073 1.46304
          CHANNELS 3 Zrotation Xrotation Yrotation
          JOINT lForeArm
          {
            OFFSET 28.1742 -1.7115 0.48768
            CHANNELS 3 Zrotation Xrotation Yrotation
            JOINT lHand
            {
              OFFSET 22.5879 0.773209 7.07136
              CHANNELS 3 Zrotation Xrotation Yrotation
              JOINT lThumb1
              {
                OFFSET 1.2192 -0.487915 3.41376
                CHANNELS 3 Zrotation Xrotation Yrotation
                JOINT lThumb2
                {
                  OFFSET 3.37035 -0.52449 3.41376
                  CHANNELS 3 Zrotation Xrotation Yrotation
                  End Site
                  {
                    OFFSET 1.78271 -1.18214 1.43049
                  }
                }
              }
              JOINT lIndex1
              {
                OFFSET 7.75947 0.938293 5.60832
                CHANNELS 3 Zrotation Xrotation Yrotation
                JOINT lIndex2
                {
                  OFFSET 2.54057 -0.884171 1.56538
                  CHANNELS 3 Zrotation Xrotation Yrotation
                  End Site
                  {
                    OFFSET 1.62519 -0.234802 1.16502
                  }
                }
              }
              JOINT lMid1
              {
                OFFSET 8.24714 1.18213 3.41376
                CHANNELS 3 Zrotation Xrotation Yrotation
                JOINT lMid2
                {
                  OFFSET 3.10165 -0.590103 1.0647
                  CHANNELS 3 Zrotation Xrotation Yrotation
                  End Site
                  {
                    OFFSET 2.48547 -0.328903 0.83742
                  }
                }
              }
              JOINT lRing1
              {
                OFFSET 8.82822 0.546677 1.51678
                CHANNELS 3 Zrotation Xrotation Yrotation
                JOINT lRing2
                {
                  OFFSET 2.60934 -0.819778 -0.0198488
                  CHANNELS 3 Zrotation Xrotation Yrotation
                  End Site
                  {
                    OFFSET 2.33842 -0.294052 0.168128
                  }
                }
              }
              JOINT lPinky1
              {
                OFFSET 8.27202 -0.0477905 -0.4584
                CHANNELS 3 Zrotation Xrotation Yrotation
                JOINT lPinky2
                {
                  OFFSET 1.82734 -0.647385 -0.700984
                  CHANNELS 3 Zrotation Xrotation Yrotation
                  End Site
                  {
                    OFFSET 1.69225 -0.51767 -0.607171
                  }
                }
              }
            }
          }
        }
      }
    }
  }
  JOINT rButtock
  {
    OFFSET -8.77824 4.35084 1.2192
    CHANNELS 3 Zrotation Xrotation Yrotation
    JOINT rThigh
    {
      OFFSET 0 -1.70687 -2.19456
      CHANNELS 3 Zrotation Xrotation Yrotation
      JOINT rShin
      {
        OFFSET 0 -36.8199 0.73152
        CHANNELS 3 Zrotation Xrotation Yrotation
        JOINT rFoot
        {
          OFFSET 0.73152 -45.1104 -5.12064
          CHANNELS 3 Zrotation Xrotation Yrotation
          End Site
          {
            OFFSET -1.1221 -3.69964 12.103
          }
        }
      }
    }
  }
  JOINT lButtock
  {
    OFFSET 8.77824 4.35084 1.2192
    CHANNELS 3 Zrotation Xrotation Yrotation
    JOINT lThigh
    {
      OFFSET 0 -1.70687 -2.19456
      CHANNELS 3 Zrotation Xrotation Yrotation
      JOINT lShin
      {
        OFFSET 0 -36.8199 0.73152
        CHANNELS 3 Zrotation Xrotation Yrotation
        JOINT lFoot
        {
          OFFSET -0.73152 -45.1104 -5.12064
          CHANNELS 3 Zrotation Xrotation Yrotation
          End Site
          {
            OFFSET 1.1221 -3.69964 12.103
          }
        }
      }
    }
  }
}
MOTION
Frames:	9
Frame Time:	0.00833333
249.845 84.8429 -30.0386 0.0 0.0 0.0 -0.257804 -0.00149939 -0.00737505 -0.0711632 -0.00234958 -0.0123288 4.96953e-16 -7.95139e-16 -5.28022e-17 1.44119e-15 3.18055e-15 -1.61513e-16 -0.0 0.0 0.0 -0.0 0.0 0.0 2.96825e-16 -6.21202e-18 1.49089e-16 7.5279e-15 -4.34841e-17 1.98785e-16 8.94531e-14 -2.90226e-14 -3.81667e-14 9.97216e-13 7.62836e-15 -9.22361e-14 2.35424e-12 -4.95432e-14 -2.70347e-13 4.05998e-12 -9.54166e-14 -4.68337e-13 2.35918e-12 -4.81059e-14 -2.76708e-13 7.73091 5.47488 0.417314 2.35331e-12 -4.97956e-14 -2.67167e-13 2.90554 0.965183 0.102902 2.36588e-12 -4.90998e-14 -2.68757e-13 10.2786 0.731801 0.0259123 2.34864e-12 -4.69132e-14 -2.60805e-13 2.22167 -0.733487 -0.20892 2.00152e-16 -6.0179e-18 -2.48481e-16 2.81162e-15 -5.59082e-17 -1.39149e-15 8.48811e-14 2.36554e-14 9.54166e-15 9.95004e-13 -3.79182e-14 -1.20861e-13 2.34423e-12 -3.35713e-14 -2.63986e-13 4.0572e-12 -5.725e-14 -4.57205e-13 2.3393e-12 -3.29983e-14 -2.54444e-13 -7.73091 5.47488 -0.417314 2.34362e-12 -3.34952e-14 -2.67167e-13 -2.90554 0.965183 -0.102902 2.33909e-12 -3.28989e-14 -2.64781e-13 -10.2786 0.731801 -0.0259123 2.34963e-12 -3.22031e-14 -2.70347e-13 -2.22167 -0.733487 0.20892 -2.03217e-16 0.0 -3.88251e-19 0.288518 -2.74965 -0.03151 -0.00677194 -0.571695 -0.0593179 -0.483436 3.32101 0.122366 2.03217e-16 0.0 3.88251e-19 -0.681417 -3.7593 0.0561651 0.00387449 1.25717 0.0320724 0.487177 2.50184 -0.10626
243.879 83.416 -35.9775 -125.907 -87.9232 127.03 -0.30605 -0.372511 0.466608 -0.0593224 1.75721 0.104769 -0.917689 0.945823 -0.827983 2.7466 -2.53775 -1.28863 -0.0 0.0 0.0 -0.0 0.0 0.0 5.1661e-15 8.50427e-13 1.14841e-14 22.1257 4.06916 0.600834 -3.95749 -1.74876 6.23236 0.00209353 -1.01496 -0.142563 -1.63833e-10 -5.07965e-11 -2.26677e-10 -2.83325e-10 -8.75502e-11 -3.92311e-10 -1.63827e-10 -5.07951e-11 -2.26687e-10 7.73091 5.47488 0.417314 -1.63834e-10 -5.07961e-11 -2.26674e-10 2.90554 0.965183 0.102902 -1.63821e-10 -5.07956e-11 -2.26677e-10 10.2786 0.731801 0.0259123 -1.63838e-10 -5.07941e-11 -2.26669e-10 2.22167 -0.733487 -0.20892 5.07243e-15 8.50427e-13 1.10978e-14 -22.2472 5.85195 -0.808632 4.02086 -1.78913 -6.32064 -0.0136527 -2.59232 0.362981 3.66795e-11 9.06208e-11 2.647e-10 6.24208e-11 1.57556e-10 4.58088e-10 3.66737e-11 9.06206e-11 2.6471e-10 -7.73091 5.47488 -0.417314 3.66785e-11 9.06201e-11 2.647e-10 -2.90554 0.965183 -0.102902 3.66733e-11 9.06209e-11 2.64701e-10 -10.2786 0.731801 -0.0259123 3.66827e-11 9.06215e-11 2.64696e-10 -2.22167 -0.733487 0.20892 -2.03217e-16 0.0 -3.88251e-19 -0.565919 -6.06917 -0.238865 0.0236305 8.45755 0.113419 -0.923136 -3.21349 -3.18397 2.03217e-16 0.0 3.88251e-19 0.586701 -5.50901 0.450119 -0.017767 7.63113 -0.0887229 0.907582 -2.32871 4.05936
243.878 83.4164 -35.9765 -125.922 -87.9274 127.041 -0.350426 -0.764587 0.967604 -0.0546468 3.61706 0.228897 -1.85766 1.94517 -1.70397 5.5252 -5.21921 -2.65891 -0.0 0.0 0.0 -0.0 0.0 0.0 1.01432e-14 1.72061e-12 2.3087e-14 45.4219 8.36953 1.24636 -7.73024 -3.52858 12.8396 -0.00118871 -2.08799 -0.293433 -3.38768e-10 -9.99857e-11 -4.68972e-10 -5.85862e-10 -1.7226e-10 -8.11675e-10 -3.38761e-10 -9.99845e-11 -4.68987e-10 7.73091 5.47488 0.417314 -3.38769e-10 -9.99848e-11 -4.68971e-10 2.90554 0.965183 0.102902 -3.38756e-10 -9.99845e-11 -4.68975e-10 10.2786 0.731801 0.0259123 -3.38773e-10 -9.99838e-11 -4.68967e-10 2.22167 -0.733487 -0.20892 1.00527e-14 1.72061e-12 2.27111e-14 -45.5822 12.0348 -1.69193 7.84532 -3.60807 -13.0225 0.00776976 -5.33245 0.749184 8.77513e-11 1.92785e-10 5.48629e-10 1.49653e-10 3.35205e-10 9.49556e-10 8.77447e-11 1.92784e-10 5.48639e-10 -7.73091 5.47488 -0.417314 8.775e-11 1.92784e-10 5.48634e-10 -2.90554 0.965183 -0.102902 8.7744e-11 1.92785e-10 5.48632e-10 -10.2786 0.731801 -0.0259123 8.77522e-11 1.92785e-10 5.48629e-10 -2.22167 -0.733487 0.20892 -2.03217e-16 0.0 -3.88251e-19 -1.4956 -9.57845 -0.462049 -0.00591963 18.0024 0.308545 -2.2167 -10.0621 -6.77338 2.03217e-16 0.0 3.88251e-19 1.9538 -7.35871 0.869503 -0.010586 14.3693 -0.221725 2.11826 -7.36597 8.52673
243.881 83.4148 -35.9755 -126.157 -87.9331 127.291 -0.384124 -1.11423 1.41481 -0.0572938 5.27625 0.340258 -2.671 2.8351 -2.48666 7.89504 -7.59777 -3.89634 -0.0 0.0 0.0 -0.0 0.0 0.0 1.49046e-14 2.55129e-12 3.41541e-14 66.116 12.2021 1.83953 -10.75 -4.99849 18.7623 -0.00888996 -3.04481 -0.428225 -4.96208e-10 -1.5229e-10 -6.79489e-10 -8.58094e-10 -2.6246e-10 -1.176e-09 -4.962e-10 -1.52289e-10 -6.79507e-10 7.73091 5.47488 0.417314 -4.96208e-10 -1.52289e-10 -6.79489e-10 2.90554 0.965183 0.102902 -4.96196e-10 -1.52289e-10 -6.79493e-10 10.2786 0.731801 0.0259123 -4.96211e-10 -1.52289e-10 -6.79485e-10 2.22167 -0.733487 -0.20892 1.4817e-14 2.55129e-12 3.37903e-14 -66.2257 17.5415 -2.53102 10.8984 -5.10664 -19.0311 0.0583513 -7.77571 1.09792 1.0535e-10 2.7193e-10 7.94628e-10 1.79148e-10 4.72784e-10 1.37518e-09 1.05343e-10 2.71928e-10 7.94638e-10 -7.73091 5.47488 -0.417314 1.05348e-10 2.71927e-10 7.94635e-10 -2.90554 0.965183 -0.102902 1.05342e-10 2.71929e-10 7.94632e-10 -10.2786 0.731801 -0.0259123 1.05349e-10 2.71929e-10 7.9463e-10 -2.22167 -0.733487 0.20892 -2.03217e-16 0.0 -3.88251e-19 -2.34855 -12.7075 -0.665945 -0.0938079 26.5152 0.508693 -4.12424 -16.054 -10.1823 2.03217e-16 0.0 3.88251e-19 3.19598 -9.00684 1.24741 0.0240197 20.3787 -0.349837 3.87295 -11.7241 12.6484
243.879 83.4158 -35.9749 -126.323 -87.9284 127.446 -0.404111 -1.35809 1.72732 -0.0629483 6.43387 0.418464 -3.22568 3.45377 -3.03351 9.48762 -9.23377 -4.77251 -0.0 0.0 0.0 -0.0 0.0 0.0 1.91269e-14 3.28322e-12 4.38817e-14 80.4908 14.8702 2.26657 -12.6714 -5.92968 22.9115 -0.0169217 -3.71118 -0.52231 -6.09906e-10 -2.12383e-10 -8.10558e-10 -1.05456e-09 -3.66384e-10 -1.40272e-09 -6.09898e-10 -2.12382e-10 -8.10577e-10 7.73091 5.47488 0.417314 -6.09908e-10 -2.12381e-10 -8.10558e-10 2.90554 0.965183 0.102902 -6.09895e-10 -2.12381e-10 -8.10563e-10 10.2786 0.731801 0.0259123 -6.0991e-10 -2.12381e-10 -8.10555e-10 2.22167 -0.733487 -0.20892 1.9041e-14 3.28322e-12 4.35338e-14 -80.5118 21.3717 -3.15976 12.8361 -6.05272 -23.2405 0.11146 -9.47798 1.34445 3.92655e-11 2.93524e-10 9.45798e-10 6.43017e-11 5.10186e-10 1.63619e-09 3.9258e-11 2.93522e-10 9.45808e-10 -7.73091 5.47488 -0.417314 3.92638e-11 2.93521e-10 9.45808e-10 -2.90554 0.965183 -0.102902 3.92571e-11 2.93523e-10 9.45803e-10 -10.2786 0.731801 -0.0259123 3.92636e-11 2.93523e-10 9.45802e-10 -2.22167 -0.733487 0.20892 -2.03217e-16 0.0 -3.88251e-19 -2.9569 -14.8867 -0.810731 -0.197286 32.4488 0.673287 -5.90639 -20.1302 -12.7405 2.03217e-16 0.0 3.88251e-19 4.07405 -10.1524 1.5139 0.0656689 24.5666 -0.447338 5.48127 -14.6479 15.637
243.878 83.4161 -35.9743 -126.453 -87.9271 127.573 -0.410487 -1.4542 1.85128 -0.066081 6.88948 0.449352 -3.44397 3.6948 -3.24829 10.1023 -9.84139 -5.12227 -0.0 0.0 0.0 -0.0 0.0 0.0 2.37863e-14 4.07784e-12 5.44189e-14 86.1054 15.9116 2.43513 -13.3844 -6.269 24.5402 -0.0206472 -3.97053 -0.558984 -6.93579e-10 -3.1149e-10 -8.66978e-10 -1.1988e-09 -5.38263e-10 -1.49996e-09 -6.93572e-10 -3.11489e-10 -8.66995e-10 7.73091 5.47488 0.417314 -6.93582e-10 -3.11488e-10 -8.66976e-10 2.90554 0.965183 0.102902 -6.9357e-10 -3.11487e-10 -8.66981e-10 10.2786 0.731801 0.0259123 -6.93582e-10 -3.11487e-10 -8.66974e-10 2.22167 -0.733487 -0.20892 2.37023e-14 4.07784e-12 5.40935e-14 -86.08 22.8643 -3.41874 13.5532 -6.39604 -24.8915 0.136293 -10.1438 1.44184 -2.02252e-10 2.04799e-10 9.97182e-10 -3.53493e-10 3.55607e-10 1.72332e-09 -2.0226e-10 2.04797e-10 9.9719e-10 -7.73091 5.47488 -0.417314 -2.02254e-10 2.04797e-10 9.97192e-10 -2.90554 0.965183 -0.102902 -2.0226e-10 2.04798e-10 9.97186e-10 -10.2786 0.731801 -0.0259123 -2.02254e-10 2.04798e-10 9.97184e-10 -2.22167 -0.733487 0.20892 -2.03217e-16 0.0 -3.88251e-19 -3.19881 -15.7364 -0.865585 -0.249328 34.7724 0.746179 -6.71231 -21.6982 -13.7935 2.03217e-16 0.0 3.88251e-19 4.41877 -10.5949 1.62021 0.0862224 26.2043 -0.487968 6.19846 -15.7594 16.8396
243.877 83.4163 -35.9738 -126.536 -87.9262 127.652 -0.408494 -1.44483 1.8405 -0.0657995 6.84367 0.446184 -3.42795 3.66652 -3.22536 10.0441 -9.71743 -5.09019 -0.0 0.0 0.0 -0.0 0.0 0.0 2.87012e-14 4.90766e-12 6.54064e-14 85.4835 15.7921 2.41151 -13.3068 -6.23202 24.3592 -0.0201909 -3.93919 -0.554551 -7.54318e-10 -4.37125e-10 -8.68334e-10 -1.30317e-09 -7.56361e-10 -1.50173e-09 -7.54314e-10 -4.37124e-10 -8.68348e-10 7.73091 5.47488 0.417314 -7.54323e-10 -4.37122e-10 -8.68331e-10 2.90554 0.965183 0.102902 -7.54313e-10 -4.37121e-10 -8.68336e-10 10.2786 0.731801 0.0259123 -7.54321e-10 -4.3712e-10 -8.68328e-10 2.22167 -0.733487 -0.20892 2.8619e-14 4.90766e-12 6.51082e-14 -85.4675 22.6903 -3.39044 13.4731 -6.35765 -24.7053 0.13341 -10.0694 1.43094 -5.66305e-10 3.86906e-11 9.75718e-10 -9.82877e-10 6.63622e-11 1.68357e-09 -5.66311e-10 3.86899e-11 9.75725e-10 -7.73091 5.47488 -0.417314 -5.66307e-10 3.86898e-11 9.75727e-10 -2.90554 0.965183 -0.102902 -5.66312e-10 3.86899e-11 9.75722e-10 -10.2786 0.731801 -0.0259123 -5.66305e-10 3.869e-11 9.75717e-10 -2.22167 -0.733487 0.20892 -2.03217e-16 0.0 -3.88251e-19 -3.17319 -15.6366 -0.854195 -0.24345 34.5177 0.739073 -6.62056 -21.5287 -13.6747 2.03217e-16 0.0 3.88251e-19 4.37706 -10.5354 1.61085 0.0836404 26.0207 -0.48357 6.11627 -15.6353 16.7084
243.876 83.4168 -35.9733 -126.663 -87.9262 127.774 -0.403436 -1.39301 1.77553 -0.0639692 6.59708 0.429434 -3.3182 3.52962 -3.10752 9.71623 -9.29954 -4.90582 -0.0 0.0 0.0 -0.0 0.0 0.0 3.1811e-14 5.43006e-12 7.22784e-14 82.3667 15.2088 2.31178 -12.9125 -6.04436 23.4542 -0.0180753 -3.79227 -0.533775 -7.55947e-10 -5.28395e-10 -7.89142e-10 -1.30545e-09 -9.14961e-10 -1.36421e-09 -7.55945e-10 -5.28393e-10 -7.89151e-10 7.73091 5.47488 0.417314 -7.55954e-10 -5.28392e-10 -7.89137e-10 2.90554 0.965183 0.102902 -7.55945e-10 -5.2839e-10 -7.89141e-10 10.2786 0.731801 0.0259123 -7.55951e-10 -5.28389e-10 -7.89134e-10 2.22167 -0.733487 -0.20892 3.17284e-14 5.43006e-12 7.20074e-14 -82.3819 21.8505 -3.24771 13.0741 -6.16646 -23.7842 0.119459 -9.69898 1.37672 -8.86128e-10 -1.10772e-10 8.72362e-10 -1.5355e-09 -1.93972e-10 1.50252e-09 -8.86133e-10 -1.10771e-10 8.72366e-10 -7.73091 5.47488 -0.417314 -8.86129e-10 -1.10771e-10 8.72369e-10 -2.90554 0.965183 -0.102902 -8.86133e-10 -1.10772e-10 8.72365e-10 -10.2786 0.731801 -0.0259123 -8.86126e-10 -1.10772e-10 8.72358e-10 -2.22167 -0.733487 0.20892 -2.03217e-16 0.0 -3.88251e-19 -3.04011 -15.1571 -0.816455 -0.214381 33.2313 0.699855 -6.17025 -20.6644 -13.0876 2.03217e-16 0.0 3.88251e-19 4.18128 -10.2758 1.55463 0.0717755 25.1087 -0.46114 5.71469 -15.0172 16.0435
243.875 83.4171 -35.9729 -126.77 -87.9285 127.877 -0.400538 -1.36179 1.73693 -0.0625381 6.45034 0.419591 -3.25501 3.44477 -3.03761 9.52126 -9.02528 -4.79875 -0.0 0.0 0.0 -0.0 0.0 0.0 3.10552e-14 5.3024e-12 7.04692e-14 80.4956 14.8585 2.25228 -12.6726 -5.92947 22.9117 -0.0168644 -3.7049 -0.521424 -6.6229e-10 -5.24407e-10 -6.03914e-10 -1.14342e-09 -9.08347e-10 -1.04364e-09 -6.6229e-10 -5.24404e-10 -6.03921e-10 7.73091 5.47488 0.417314 -6.62298e-10 -5.24403e-10 -6.03908e-10 2.90554 0.965183 0.102902 -6.6229e-10 -5.244e-10 -6.03911e-10 10.2786 0.731801 0.0259123 -6.62294e-10 -5.244e-10 -6.03905e-10 2.22167 -0.733487 -0.20892 3.09676e-14 5.3024e-12 7.02207e-14 -80.5288 21.3455 -3.16441 12.831 -6.04914 -23.2314 0.111424 -9.47645 1.34423 -9.94955e-10 -1.49559e-10 6.78066e-10 -1.72303e-09 -2.6182e-10 1.16577e-09 -9.9496e-10 -1.49558e-10 6.78069e-10 -7.73091 5.47488 -0.417314 -9.94957e-10 -1.49558e-10 6.78072e-10 -2.90554 0.965183 -0.102902 -9.9496e-10 -1.49559e-10 6.78068e-10 -10.2786 0.731801 -0.0259123 -9.94953e-10 -1.49559e-10 6.78059e-10 -2.22167 -0.733487 0.20892 -2.03217e-16 0.0 -3.88251e-19 -2.95968 -14.8676 -0.792299 -0.198011 32.4597 0.67721 -5.90981 -20.1456 -12.7405 2.03217e-16 0.0 3.88251e-19 4.06403 -10.1181 1.5204 0.0648642 24.5614 -0.447889 5.48117 -14.6439 15.6478
